# xmcd CD database file
#
# Track frame offsets:
#	150
#	18340
#	43940
#	75385
#	93592
#
# Disc length: 1586 seconds
#
# Revision: 0
# Processed by: cddbd v1.5.1PL0 Copyright (c) Steve Scherf et al.
# Submitted via: CDex 1.51
#
DISCID=32063005
DTITLE=F.A.T. - My You - 君が好き
DYEAR=2001
DGENRE=JPop
TTITLE0=My You
TTITLE1=君が好き
TTITLE2=My You -UNDERGROUND ''MY-U'' MIX-
TTITLE3=My You
TTITLE4=君が好き
EXTD=YEAR: 2001
EXTT0=
EXTT1=
EXTT2=
EXTT3=
EXTT4=
PLAYORDER=
